<mxfile host="app.diagrams.net" modified="2023-10-18T22:40:17.512Z" agent="Mozilla/5.0 (Windows NT 10.0; Win64; x64) AppleWebKit/537.36 (KHTML, like Gecko) Chrome/118.0.0.0 Safari/537.36 Edg/118.0.2088.46" etag="dti3M5Faoa3w5_HuLlfP" version="22.0.4" type="github">
  <diagram id="C5RBs43oDa-KdzZeNtuy" name="Page-1">
    <mxGraphModel dx="979" dy="1725" grid="1" gridSize="10" guides="1" tooltips="1" connect="1" arrows="1" fold="1" page="1" pageScale="1" pageWidth="827" pageHeight="1169" math="0" shadow="0">
      <root>
        <mxCell id="WIyWlLk6GJQsqaUBKTNV-0" />
        <mxCell id="WIyWlLk6GJQsqaUBKTNV-1" parent="WIyWlLk6GJQsqaUBKTNV-0" />
        <mxCell id="nkBT72yB8cqDGZG23Rx0-20" value="Iphone" style="swimlane;fontStyle=2;align=center;verticalAlign=top;childLayout=stackLayout;horizontal=1;startSize=26;horizontalStack=0;resizeParent=1;resizeLast=0;collapsible=1;marginBottom=0;rounded=0;shadow=0;strokeWidth=1;" vertex="1" parent="WIyWlLk6GJQsqaUBKTNV-1">
          <mxGeometry x="280" y="-60" width="296" height="280" as="geometry">
            <mxRectangle x="230" y="140" width="160" height="26" as="alternateBounds" />
          </mxGeometry>
        </mxCell>
        <mxCell id="nkBT72yB8cqDGZG23Rx0-21" value="+ ligar(numero:String)void&#xa;" style="text;align=left;verticalAlign=top;spacingLeft=4;spacingRight=4;overflow=hidden;rotatable=0;points=[[0,0.5],[1,0.5]];portConstraint=eastwest;" vertex="1" parent="nkBT72yB8cqDGZG23Rx0-20">
          <mxGeometry y="26" width="296" height="26" as="geometry" />
        </mxCell>
        <mxCell id="nkBT72yB8cqDGZG23Rx0-22" value="+ atender (numero:String) void" style="text;align=left;verticalAlign=top;spacingLeft=4;spacingRight=4;overflow=hidden;rotatable=0;points=[[0,0.5],[1,0.5]];portConstraint=eastwest;rounded=0;shadow=0;html=0;" vertex="1" parent="nkBT72yB8cqDGZG23Rx0-20">
          <mxGeometry y="52" width="296" height="26" as="geometry" />
        </mxCell>
        <mxCell id="nkBT72yB8cqDGZG23Rx0-61" value="+ selecionarCorreioDeVoz(numero: String): void" style="text;align=left;verticalAlign=top;spacingLeft=4;spacingRight=4;overflow=hidden;rotatable=0;points=[[0,0.5],[1,0.5]];portConstraint=eastwest;rounded=0;shadow=0;html=0;" vertex="1" parent="nkBT72yB8cqDGZG23Rx0-20">
          <mxGeometry y="78" width="296" height="26" as="geometry" />
        </mxCell>
        <mxCell id="nkBT72yB8cqDGZG23Rx0-57" value="+ selecionarMusica():void" style="text;align=left;verticalAlign=top;spacingLeft=4;spacingRight=4;overflow=hidden;rotatable=0;points=[[0,0.5],[1,0.5]];portConstraint=eastwest;rounded=0;shadow=0;html=0;" vertex="1" parent="nkBT72yB8cqDGZG23Rx0-20">
          <mxGeometry y="104" width="296" height="26" as="geometry" />
        </mxCell>
        <mxCell id="nkBT72yB8cqDGZG23Rx0-23" value="+ tocarMusica (): void" style="text;align=left;verticalAlign=top;spacingLeft=4;spacingRight=4;overflow=hidden;rotatable=0;points=[[0,0.5],[1,0.5]];portConstraint=eastwest;rounded=0;shadow=0;html=0;" vertex="1" parent="nkBT72yB8cqDGZG23Rx0-20">
          <mxGeometry y="130" width="296" height="26" as="geometry" />
        </mxCell>
        <mxCell id="nkBT72yB8cqDGZG23Rx0-66" value="+ pausarMusica (): void" style="text;align=left;verticalAlign=top;spacingLeft=4;spacingRight=4;overflow=hidden;rotatable=0;points=[[0,0.5],[1,0.5]];portConstraint=eastwest;rounded=0;shadow=0;html=0;" vertex="1" parent="nkBT72yB8cqDGZG23Rx0-20">
          <mxGeometry y="156" width="296" height="26" as="geometry" />
        </mxCell>
        <mxCell id="nkBT72yB8cqDGZG23Rx0-59" value="+ exibirPagina(url : String): void" style="text;align=left;verticalAlign=top;spacingLeft=4;spacingRight=4;overflow=hidden;rotatable=0;points=[[0,0.5],[1,0.5]];portConstraint=eastwest;rounded=0;shadow=0;html=0;" vertex="1" parent="nkBT72yB8cqDGZG23Rx0-20">
          <mxGeometry y="182" width="296" height="26" as="geometry" />
        </mxCell>
        <mxCell id="nkBT72yB8cqDGZG23Rx0-56" value="+ atualizarPagina(): void" style="text;align=left;verticalAlign=top;spacingLeft=4;spacingRight=4;overflow=hidden;rotatable=0;points=[[0,0.5],[1,0.5]];portConstraint=eastwest;rounded=0;shadow=0;html=0;" vertex="1" parent="nkBT72yB8cqDGZG23Rx0-20">
          <mxGeometry y="208" width="296" height="26" as="geometry" />
        </mxCell>
        <mxCell id="nkBT72yB8cqDGZG23Rx0-58" value="+ adicionarNovaAba(url:String): void" style="text;align=left;verticalAlign=top;spacingLeft=4;spacingRight=4;overflow=hidden;rotatable=0;points=[[0,0.5],[1,0.5]];portConstraint=eastwest;rounded=0;shadow=0;html=0;" vertex="1" parent="nkBT72yB8cqDGZG23Rx0-20">
          <mxGeometry y="234" width="296" height="26" as="geometry" />
        </mxCell>
        <mxCell id="nkBT72yB8cqDGZG23Rx0-26" value="&lt;&lt;Interface&gt;&gt;&#xa;Ipod" style="swimlane;fontStyle=2;align=center;verticalAlign=top;childLayout=stackLayout;horizontal=1;startSize=40;horizontalStack=0;resizeParent=1;resizeLast=0;collapsible=1;marginBottom=0;rounded=0;shadow=0;strokeWidth=1;" vertex="1" parent="WIyWlLk6GJQsqaUBKTNV-1">
          <mxGeometry x="340" y="370" width="202" height="138" as="geometry">
            <mxRectangle x="230" y="140" width="160" height="26" as="alternateBounds" />
          </mxGeometry>
        </mxCell>
        <mxCell id="nkBT72yB8cqDGZG23Rx0-27" value="+ selecionarMusica():void" style="text;align=left;verticalAlign=top;spacingLeft=4;spacingRight=4;overflow=hidden;rotatable=0;points=[[0,0.5],[1,0.5]];portConstraint=eastwest;" vertex="1" parent="nkBT72yB8cqDGZG23Rx0-26">
          <mxGeometry y="40" width="202" height="26" as="geometry" />
        </mxCell>
        <mxCell id="nkBT72yB8cqDGZG23Rx0-28" value="+ tocarMusica (): void" style="text;align=left;verticalAlign=top;spacingLeft=4;spacingRight=4;overflow=hidden;rotatable=0;points=[[0,0.5],[1,0.5]];portConstraint=eastwest;rounded=0;shadow=0;html=0;" vertex="1" parent="nkBT72yB8cqDGZG23Rx0-26">
          <mxGeometry y="66" width="202" height="26" as="geometry" />
        </mxCell>
        <mxCell id="nkBT72yB8cqDGZG23Rx0-29" value="+ pausarMusica (): void" style="text;align=left;verticalAlign=top;spacingLeft=4;spacingRight=4;overflow=hidden;rotatable=0;points=[[0,0.5],[1,0.5]];portConstraint=eastwest;rounded=0;shadow=0;html=0;" vertex="1" parent="nkBT72yB8cqDGZG23Rx0-26">
          <mxGeometry y="92" width="202" height="26" as="geometry" />
        </mxCell>
        <mxCell id="nkBT72yB8cqDGZG23Rx0-34" value="&lt;&lt;Interface&gt;&gt;&#xa;Navegador Internet" style="swimlane;fontStyle=2;align=center;verticalAlign=top;childLayout=stackLayout;horizontal=1;startSize=42;horizontalStack=0;resizeParent=1;resizeLast=0;collapsible=1;marginBottom=0;rounded=0;shadow=0;strokeWidth=1;" vertex="1" parent="WIyWlLk6GJQsqaUBKTNV-1">
          <mxGeometry x="550" y="298" width="230" height="142" as="geometry">
            <mxRectangle x="230" y="140" width="160" height="26" as="alternateBounds" />
          </mxGeometry>
        </mxCell>
        <mxCell id="nkBT72yB8cqDGZG23Rx0-35" value="+ exibirPagina(url : String): void" style="text;align=left;verticalAlign=top;spacingLeft=4;spacingRight=4;overflow=hidden;rotatable=0;points=[[0,0.5],[1,0.5]];portConstraint=eastwest;" vertex="1" parent="nkBT72yB8cqDGZG23Rx0-34">
          <mxGeometry y="42" width="230" height="26" as="geometry" />
        </mxCell>
        <mxCell id="nkBT72yB8cqDGZG23Rx0-36" value="+ atualizarPagina(): void" style="text;align=left;verticalAlign=top;spacingLeft=4;spacingRight=4;overflow=hidden;rotatable=0;points=[[0,0.5],[1,0.5]];portConstraint=eastwest;rounded=0;shadow=0;html=0;" vertex="1" parent="nkBT72yB8cqDGZG23Rx0-34">
          <mxGeometry y="68" width="230" height="26" as="geometry" />
        </mxCell>
        <mxCell id="nkBT72yB8cqDGZG23Rx0-37" value="+ adicionarNovaAba(url:String): void" style="text;align=left;verticalAlign=top;spacingLeft=4;spacingRight=4;overflow=hidden;rotatable=0;points=[[0,0.5],[1,0.5]];portConstraint=eastwest;rounded=0;shadow=0;html=0;" vertex="1" parent="nkBT72yB8cqDGZG23Rx0-34">
          <mxGeometry y="94" width="230" height="26" as="geometry" />
        </mxCell>
        <mxCell id="nkBT72yB8cqDGZG23Rx0-41" value="&lt;&lt;Interface&gt;&gt;&#xa;Telefone" style="swimlane;fontStyle=2;align=center;verticalAlign=top;childLayout=stackLayout;horizontal=1;startSize=40;horizontalStack=0;resizeParent=1;resizeLast=0;collapsible=1;marginBottom=0;rounded=0;shadow=0;strokeWidth=1;" vertex="1" parent="WIyWlLk6GJQsqaUBKTNV-1">
          <mxGeometry x="60" y="310" width="270" height="160" as="geometry">
            <mxRectangle x="230" y="140" width="160" height="26" as="alternateBounds" />
          </mxGeometry>
        </mxCell>
        <mxCell id="nkBT72yB8cqDGZG23Rx0-42" value="+ ligar(numero:String)void&#xa;" style="text;align=left;verticalAlign=top;spacingLeft=4;spacingRight=4;overflow=hidden;rotatable=0;points=[[0,0.5],[1,0.5]];portConstraint=eastwest;" vertex="1" parent="nkBT72yB8cqDGZG23Rx0-41">
          <mxGeometry y="40" width="270" height="26" as="geometry" />
        </mxCell>
        <mxCell id="nkBT72yB8cqDGZG23Rx0-43" value="+ atender (numero:String) void" style="text;align=left;verticalAlign=top;spacingLeft=4;spacingRight=4;overflow=hidden;rotatable=0;points=[[0,0.5],[1,0.5]];portConstraint=eastwest;rounded=0;shadow=0;html=0;" vertex="1" parent="nkBT72yB8cqDGZG23Rx0-41">
          <mxGeometry y="66" width="270" height="26" as="geometry" />
        </mxCell>
        <mxCell id="nkBT72yB8cqDGZG23Rx0-44" value="+ selecionarCorreioDeVoz(numero: String): void" style="text;align=left;verticalAlign=top;spacingLeft=4;spacingRight=4;overflow=hidden;rotatable=0;points=[[0,0.5],[1,0.5]];portConstraint=eastwest;rounded=0;shadow=0;html=0;" vertex="1" parent="nkBT72yB8cqDGZG23Rx0-41">
          <mxGeometry y="92" width="270" height="26" as="geometry" />
        </mxCell>
        <mxCell id="nkBT72yB8cqDGZG23Rx0-49" value="" style="endArrow=block;endSize=10;endFill=0;shadow=0;strokeWidth=1;rounded=0;edgeStyle=elbowEdgeStyle;elbow=vertical;" edge="1" parent="WIyWlLk6GJQsqaUBKTNV-1" target="nkBT72yB8cqDGZG23Rx0-20">
          <mxGeometry width="160" relative="1" as="geometry">
            <mxPoint x="130" y="312" as="sourcePoint" />
            <mxPoint x="394" y="230" as="targetPoint" />
          </mxGeometry>
        </mxCell>
        <mxCell id="nkBT72yB8cqDGZG23Rx0-50" value="" style="endArrow=block;endSize=10;endFill=0;shadow=0;strokeWidth=1;rounded=0;edgeStyle=elbowEdgeStyle;elbow=vertical;exitX=0.315;exitY=0.008;exitDx=0;exitDy=0;exitPerimeter=0;" edge="1" parent="WIyWlLk6GJQsqaUBKTNV-1" target="nkBT72yB8cqDGZG23Rx0-20">
          <mxGeometry width="160" relative="1" as="geometry">
            <mxPoint x="672.3999999999999" y="305.10400000000004" as="sourcePoint" />
            <mxPoint x="470" y="220" as="targetPoint" />
          </mxGeometry>
        </mxCell>
        <mxCell id="nkBT72yB8cqDGZG23Rx0-51" value="" style="endArrow=block;endSize=10;endFill=0;shadow=0;strokeWidth=1;rounded=0;edgeStyle=elbowEdgeStyle;elbow=vertical;" edge="1" parent="WIyWlLk6GJQsqaUBKTNV-1" source="nkBT72yB8cqDGZG23Rx0-26" target="nkBT72yB8cqDGZG23Rx0-20">
          <mxGeometry width="160" relative="1" as="geometry">
            <mxPoint x="440" y="330" as="sourcePoint" />
            <mxPoint x="443.9999999999999" y="222" as="targetPoint" />
            <Array as="points">
              <mxPoint x="428" y="330" />
            </Array>
          </mxGeometry>
        </mxCell>
      </root>
    </mxGraphModel>
  </diagram>
</mxfile>
